<svg xmlns="http://www.w3.org/2000/svg" xmlns:xlink="http://www.w3.org/1999/xlink" width="500" zoomAndPan="magnify" viewBox="0 0 375 374.999991" height="500" preserveAspectRatio="xMidYMid meet" version="1.0"><defs><g/><clipPath id="807b4e250f"><path d="M 88.539062 151.417969 L 92.289062 151.417969 L 92.289062 220.574219 L 88.539062 220.574219 Z M 88.539062 151.417969 " clip-rule="nonzero"/></clipPath><clipPath id="c6d7d5e4a2"><path d="M 90.414062 220.574219 C 89.917969 220.574219 89.441406 220.375 89.089844 220.023438 C 88.738281 219.671875 88.539062 219.195312 88.539062 218.699219 L 88.539062 153.296875 C 88.539062 152.800781 88.738281 152.324219 89.089844 151.972656 C 89.441406 151.621094 89.917969 151.421875 90.414062 151.421875 C 90.914062 151.421875 91.390625 151.621094 91.742188 151.972656 C 92.09375 152.324219 92.289062 152.800781 92.289062 153.296875 L 92.289062 218.699219 C 92.289062 219.195312 92.09375 219.671875 91.742188 220.023438 C 91.390625 220.375 90.914062 220.574219 90.414062 220.574219 Z M 90.414062 220.574219 " clip-rule="nonzero"/></clipPath><clipPath id="6129e452c5"><path d="M 0.539062 0.417969 L 4.289062 0.417969 L 4.289062 69.574219 L 0.539062 69.574219 Z M 0.539062 0.417969 " clip-rule="nonzero"/></clipPath><clipPath id="44f942ad2a"><path d="M 2.414062 69.574219 C 1.917969 69.574219 1.441406 69.375 1.089844 69.023438 C 0.738281 68.671875 0.539062 68.195312 0.539062 67.699219 L 0.539062 2.296875 C 0.539062 1.800781 0.738281 1.324219 1.089844 0.972656 C 1.441406 0.621094 1.917969 0.421875 2.414062 0.421875 C 2.914062 0.421875 3.390625 0.621094 3.742188 0.972656 C 4.09375 1.324219 4.289062 1.800781 4.289062 2.296875 L 4.289062 67.699219 C 4.289062 68.195312 4.09375 68.671875 3.742188 69.023438 C 3.390625 69.375 2.914062 69.574219 2.414062 69.574219 Z M 2.414062 69.574219 " clip-rule="nonzero"/></clipPath><clipPath id="895df89d27"><rect x="0" width="5" y="0" height="70"/></clipPath><clipPath id="ff6c58076c"><path d="M 112 162 L 187 162 L 187 258 L 112 258 Z M 112 162 " clip-rule="nonzero"/></clipPath><clipPath id="0a1c4304e3"><path d="M 187.601562 256.417969 L 184.632812 258.707031 L 111.921875 164.460938 L 114.890625 162.171875 Z M 187.601562 256.417969 " clip-rule="nonzero"/></clipPath><clipPath id="3d78a85d9a"><path d="M 186.117188 257.5625 C 185.722656 257.863281 185.226562 258 184.734375 257.9375 C 184.238281 257.871094 183.792969 257.617188 183.488281 257.222656 L 113.078125 165.957031 C 112.773438 165.5625 112.636719 165.066406 112.703125 164.570312 C 112.765625 164.078125 113.023438 163.632812 113.417969 163.328125 C 113.808594 163.023438 114.308594 162.890625 114.800781 162.953125 C 115.292969 163.015625 115.742188 163.273438 116.046875 163.667969 L 186.457031 254.929688 C 186.761719 255.324219 186.894531 255.824219 186.832031 256.316406 C 186.769531 256.808594 186.511719 257.257812 186.117188 257.5625 Z M 186.117188 257.5625 " clip-rule="nonzero"/></clipPath><clipPath id="b5219d80c8"><path d="M 0.558594 0.71875 L 74.960938 0.71875 L 74.960938 96 L 0.558594 96 Z M 0.558594 0.71875 " clip-rule="nonzero"/></clipPath><clipPath id="762723a09a"><path d="M 75.601562 94.417969 L 72.632812 96.707031 L -0.078125 2.460938 L 2.890625 0.171875 Z M 75.601562 94.417969 " clip-rule="nonzero"/></clipPath><clipPath id="16be5e3b59"><path d="M 74.117188 95.5625 C 73.722656 95.863281 73.226562 96 72.734375 95.9375 C 72.238281 95.871094 71.792969 95.617188 71.488281 95.222656 L 1.078125 3.957031 C 0.773438 3.5625 0.636719 3.066406 0.703125 2.570312 C 0.765625 2.078125 1.023438 1.632812 1.417969 1.328125 C 1.808594 1.023438 2.308594 0.890625 2.800781 0.953125 C 3.292969 1.015625 3.742188 1.273438 4.046875 1.667969 L 74.457031 92.929688 C 74.761719 93.324219 74.894531 93.824219 74.832031 94.316406 C 74.769531 94.808594 74.511719 95.257812 74.117188 95.5625 Z M 74.117188 95.5625 " clip-rule="nonzero"/></clipPath><clipPath id="5545514d61"><path d="M 75.601562 94.417969 L 72.632812 96.707031 L -0.0664062 2.472656 L 2.902344 0.183594 Z M 75.601562 94.417969 " clip-rule="nonzero"/></clipPath><clipPath id="5601810f75"><path d="M 75.601562 94.417969 L 72.632812 96.707031 L -0.0664062 2.472656 L 2.902344 0.183594 Z M 75.601562 94.417969 " clip-rule="nonzero"/></clipPath><linearGradient x1="-3861.883318" gradientTransform="matrix(-0.011598, 0.00894783, -0.00894783, -0.011598, 75.602326, 94.416134)" y1="4062.5161" x2="4117.883736" gradientUnits="userSpaceOnUse" y2="4062.5161" id="1f2400220b"><stop stop-opacity="1" stop-color="rgb(31.759644%, 43.919373%, 100%)" offset="0"/><stop stop-opacity="1" stop-color="rgb(31.759644%, 43.919373%, 100%)" offset="0.25"/><stop stop-opacity="1" stop-color="rgb(31.759644%, 43.919373%, 100%)" offset="0.375"/><stop stop-opacity="1" stop-color="rgb(31.759644%, 43.919373%, 100%)" offset="0.4375"/><stop stop-opacity="1" stop-color="rgb(31.759644%, 43.919373%, 100%)" offset="0.46875"/><stop stop-opacity="1" stop-color="rgb(31.759644%, 43.919373%, 100%)" offset="0.476562"/><stop stop-opacity="1" stop-color="rgb(32.200623%, 43.893433%, 99.848938%)" offset="0.480469"/><stop stop-opacity="1" stop-color="rgb(32.643127%, 43.869019%, 99.699402%)" offset="0.484375"/><stop stop-opacity="1" stop-color="rgb(40.951538%, 43.391418%, 96.881104%)" offset="0.488281"/><stop stop-opacity="1" stop-color="rgb(49.261475%, 42.913818%, 94.064331%)" offset="0.492188"/><stop stop-opacity="1" stop-color="rgb(57.569885%, 42.436218%, 91.246033%)" offset="0.496094"/><stop stop-opacity="1" stop-color="rgb(65.879822%, 41.958618%, 88.42926%)" offset="0.5"/><stop stop-opacity="1" stop-color="rgb(74.188232%, 41.481018%, 85.610962%)" offset="0.503906"/><stop stop-opacity="1" stop-color="rgb(82.496643%, 41.004944%, 82.794189%)" offset="0.507812"/><stop stop-opacity="1" stop-color="rgb(90.805054%, 40.527344%, 79.975891%)" offset="0.511719"/><stop stop-opacity="1" stop-color="rgb(99.11499%, 40.049744%, 77.159119%)" offset="0.515625"/><stop stop-opacity="1" stop-color="rgb(99.557495%, 40.023804%, 77.008057%)" offset="0.519531"/><stop stop-opacity="1" stop-color="rgb(100%, 39.99939%, 76.858521%)" offset="0.523438"/><stop stop-opacity="1" stop-color="rgb(100%, 39.99939%, 76.858521%)" offset="0.53125"/><stop stop-opacity="1" stop-color="rgb(100%, 39.99939%, 76.858521%)" offset="0.5625"/><stop stop-opacity="1" stop-color="rgb(100%, 39.99939%, 76.858521%)" offset="0.625"/><stop stop-opacity="1" stop-color="rgb(100%, 39.99939%, 76.858521%)" offset="0.75"/><stop stop-opacity="1" stop-color="rgb(100%, 39.99939%, 76.858521%)" offset="1"/></linearGradient><clipPath id="44fb3ee8bd"><rect x="0" width="75" y="0" height="96"/></clipPath><clipPath id="c374022650"><path d="M 88.535156 114.628906 L 135.320312 114.628906 L 135.320312 172.5625 L 88.535156 172.5625 Z M 88.535156 114.628906 " clip-rule="nonzero"/></clipPath><clipPath id="2571518923"><path d="M 111.925781 172.425781 C 105.722656 172.425781 99.773438 169.960938 95.386719 165.574219 C 91 161.1875 88.535156 155.234375 88.535156 149.03125 L 88.535156 138.023438 C 88.535156 131.820312 91 125.867188 95.386719 121.480469 C 99.773438 117.09375 105.722656 114.628906 111.925781 114.628906 C 118.128906 114.628906 124.082031 117.09375 128.46875 121.480469 C 132.855469 125.867188 135.320312 131.820312 135.320312 138.023438 L 135.320312 149.03125 C 135.320312 155.234375 132.855469 161.1875 128.46875 165.574219 C 124.082031 169.960938 118.128906 172.425781 111.925781 172.425781 Z M 111.925781 172.425781 " clip-rule="nonzero"/></clipPath><clipPath id="68b67ad2b7"><path d="M 0.535156 0.628906 L 47.320312 0.628906 L 47.320312 58.558594 L 0.535156 58.558594 Z M 0.535156 0.628906 " clip-rule="nonzero"/></clipPath><clipPath id="df64438edc"><path d="M 23.925781 58.425781 C 17.722656 58.425781 11.773438 55.960938 7.386719 51.574219 C 3 47.1875 0.535156 41.234375 0.535156 35.03125 L 0.535156 24.023438 C 0.535156 17.820312 3 11.867188 7.386719 7.480469 C 11.773438 3.09375 17.722656 0.628906 23.925781 0.628906 C 30.128906 0.628906 36.082031 3.09375 40.46875 7.480469 C 44.855469 11.867188 47.320312 17.820312 47.320312 24.023438 L 47.320312 35.03125 C 47.320312 41.234375 44.855469 47.1875 40.46875 51.574219 C 36.082031 55.960938 30.128906 58.425781 23.925781 58.425781 Z M 23.925781 58.425781 " clip-rule="nonzero"/></clipPath><clipPath id="3450e3d1ac"><rect x="0" width="48" y="0" height="59"/></clipPath><clipPath id="a66b5f98d7"><path d="M 88.820312 114.628906 L 135.320312 114.628906 L 135.320312 172.378906 L 88.820312 172.378906 Z M 88.820312 114.628906 " clip-rule="nonzero"/></clipPath><clipPath id="10c91c766e"><path d="M 111.929688 172.414062 C 105.726562 172.414062 99.777344 169.953125 95.390625 165.566406 C 91.003906 161.179688 88.539062 155.230469 88.539062 149.027344 L 88.539062 138.019531 C 88.539062 131.816406 91.003906 125.867188 95.390625 121.480469 C 99.777344 117.09375 105.726562 114.628906 111.929688 114.628906 C 118.132812 114.628906 124.082031 117.09375 128.464844 121.480469 C 132.851562 125.867188 135.316406 131.816406 135.316406 138.019531 L 135.316406 149.027344 C 135.316406 155.230469 132.851562 161.179688 128.464844 165.566406 C 124.082031 169.953125 118.132812 172.414062 111.929688 172.414062 Z M 111.929688 172.414062 " clip-rule="nonzero"/></clipPath><linearGradient x1="-0.0000152458" gradientTransform="matrix(0.592623, 0, 0, 0.592623, 0.00000903503, -0.0000075176)" y1="52.622002" x2="129.930882" gradientUnits="userSpaceOnUse" y2="52.622002" id="7b42ba2e5c"><stop stop-opacity="1" stop-color="rgb(31.759644%, 43.919373%, 100%)" offset="0"/><stop stop-opacity="1" stop-color="rgb(32.025146%, 43.904114%, 99.908447%)" offset="0.00390625"/><stop stop-opacity="1" stop-color="rgb(32.292175%, 43.888855%, 99.81842%)" offset="0.0078125"/><stop stop-opacity="1" stop-color="rgb(32.557678%, 43.873596%, 99.728394%)" offset="0.0117188"/><stop stop-opacity="1" stop-color="rgb(32.824707%, 43.858337%, 99.638367%)" offset="0.015625"/><stop stop-opacity="1" stop-color="rgb(33.09021%, 43.843079%, 99.546814%)" offset="0.0195312"/><stop stop-opacity="1" stop-color="rgb(33.357239%, 43.82782%, 99.456787%)" offset="0.0234375"/><stop stop-opacity="1" stop-color="rgb(33.622742%, 43.812561%, 99.36676%)" offset="0.0273437"/><stop stop-opacity="1" stop-color="rgb(33.889771%, 43.797302%, 99.276733%)" offset="0.03125"/><stop stop-opacity="1" stop-color="rgb(34.156799%, 43.782043%, 99.185181%)" offset="0.0351562"/><stop stop-opacity="1" stop-color="rgb(34.423828%, 43.766785%, 99.095154%)" offset="0.0390625"/><stop stop-opacity="1" stop-color="rgb(34.689331%, 43.751526%, 99.005127%)" offset="0.0429687"/><stop stop-opacity="1" stop-color="rgb(34.95636%, 43.736267%, 98.9151%)" offset="0.046875"/><stop stop-opacity="1" stop-color="rgb(35.221863%, 43.721008%, 98.825073%)" offset="0.0507812"/><stop stop-opacity="1" stop-color="rgb(35.488892%, 43.70575%, 98.735046%)" offset="0.0546875"/><stop stop-opacity="1" stop-color="rgb(35.754395%, 43.688965%, 98.643494%)" offset="0.0585937"/><stop stop-opacity="1" stop-color="rgb(36.021423%, 43.673706%, 98.553467%)" offset="0.0625"/><stop stop-opacity="1" stop-color="rgb(36.286926%, 43.658447%, 98.46344%)" offset="0.0664062"/><stop stop-opacity="1" stop-color="rgb(36.553955%, 43.643188%, 98.373413%)" offset="0.0703125"/><stop stop-opacity="1" stop-color="rgb(36.819458%, 43.62793%, 98.28186%)" offset="0.0742188"/><stop stop-opacity="1" stop-color="rgb(37.086487%, 43.612671%, 98.191833%)" offset="0.078125"/><stop stop-opacity="1" stop-color="rgb(37.353516%, 43.597412%, 98.101807%)" offset="0.0820312"/><stop stop-opacity="1" stop-color="rgb(37.620544%, 43.582153%, 98.01178%)" offset="0.0859375"/><stop stop-opacity="1" stop-color="rgb(37.886047%, 43.566895%, 97.921753%)" offset="0.0898438"/><stop stop-opacity="1" stop-color="rgb(38.153076%, 43.551636%, 97.831726%)" offset="0.09375"/><stop stop-opacity="1" stop-color="rgb(38.418579%, 43.536377%, 97.740173%)" offset="0.0976562"/><stop stop-opacity="1" stop-color="rgb(38.685608%, 43.521118%, 97.650146%)" offset="0.101562"/><stop stop-opacity="1" stop-color="rgb(38.951111%, 43.505859%, 97.56012%)" offset="0.105469"/><stop stop-opacity="1" stop-color="rgb(39.21814%, 43.490601%, 97.470093%)" offset="0.109375"/><stop stop-opacity="1" stop-color="rgb(39.483643%, 43.475342%, 97.37854%)" offset="0.113281"/><stop stop-opacity="1" stop-color="rgb(39.750671%, 43.460083%, 97.288513%)" offset="0.117188"/><stop stop-opacity="1" stop-color="rgb(40.0177%, 43.444824%, 97.198486%)" offset="0.121094"/><stop stop-opacity="1" stop-color="rgb(40.284729%, 43.429565%, 97.108459%)" offset="0.125"/><stop stop-opacity="1" stop-color="rgb(40.550232%, 43.414307%, 97.018433%)" offset="0.128906"/><stop stop-opacity="1" stop-color="rgb(40.817261%, 43.399048%, 96.928406%)" offset="0.132812"/><stop stop-opacity="1" stop-color="rgb(41.082764%, 43.383789%, 96.836853%)" offset="0.136719"/><stop stop-opacity="1" stop-color="rgb(41.349792%, 43.36853%, 96.746826%)" offset="0.140625"/><stop stop-opacity="1" stop-color="rgb(41.615295%, 43.353271%, 96.656799%)" offset="0.144531"/><stop stop-opacity="1" stop-color="rgb(41.882324%, 43.338013%, 96.566772%)" offset="0.148438"/><stop stop-opacity="1" stop-color="rgb(42.147827%, 43.322754%, 96.47522%)" offset="0.152344"/><stop stop-opacity="1" stop-color="rgb(42.414856%, 43.307495%, 96.385193%)" offset="0.15625"/><stop stop-opacity="1" stop-color="rgb(42.680359%, 43.292236%, 96.295166%)" offset="0.160156"/><stop stop-opacity="1" stop-color="rgb(42.947388%, 43.276978%, 96.205139%)" offset="0.164062"/><stop stop-opacity="1" stop-color="rgb(43.214417%, 43.261719%, 96.115112%)" offset="0.167969"/><stop stop-opacity="1" stop-color="rgb(43.481445%, 43.24646%, 96.025085%)" offset="0.171875"/><stop stop-opacity="1" stop-color="rgb(43.746948%, 43.231201%, 95.933533%)" offset="0.175781"/><stop stop-opacity="1" stop-color="rgb(44.013977%, 43.215942%, 95.843506%)" offset="0.179688"/><stop stop-opacity="1" stop-color="rgb(44.27948%, 43.200684%, 95.753479%)" offset="0.183594"/><stop stop-opacity="1" stop-color="rgb(44.546509%, 43.185425%, 95.663452%)" offset="0.1875"/><stop stop-opacity="1" stop-color="rgb(44.812012%, 43.16864%, 95.571899%)" offset="0.191406"/><stop stop-opacity="1" stop-color="rgb(45.079041%, 43.153381%, 95.481873%)" offset="0.195312"/><stop stop-opacity="1" stop-color="rgb(45.344543%, 43.138123%, 95.391846%)" offset="0.199219"/><stop stop-opacity="1" stop-color="rgb(45.611572%, 43.122864%, 95.301819%)" offset="0.203125"/><stop stop-opacity="1" stop-color="rgb(45.877075%, 43.107605%, 95.211792%)" offset="0.207031"/><stop stop-opacity="1" stop-color="rgb(46.144104%, 43.092346%, 95.121765%)" offset="0.210938"/><stop stop-opacity="1" stop-color="rgb(46.411133%, 43.077087%, 95.030212%)" offset="0.214844"/><stop stop-opacity="1" stop-color="rgb(46.678162%, 43.061829%, 94.940186%)" offset="0.21875"/><stop stop-opacity="1" stop-color="rgb(46.943665%, 43.04657%, 94.850159%)" offset="0.222656"/><stop stop-opacity="1" stop-color="rgb(47.210693%, 43.031311%, 94.760132%)" offset="0.226562"/><stop stop-opacity="1" stop-color="rgb(47.476196%, 43.016052%, 94.668579%)" offset="0.230469"/><stop stop-opacity="1" stop-color="rgb(47.743225%, 43.000793%, 94.578552%)" offset="0.234375"/><stop stop-opacity="1" stop-color="rgb(48.008728%, 42.985535%, 94.488525%)" offset="0.238281"/><stop stop-opacity="1" stop-color="rgb(48.275757%, 42.970276%, 94.398499%)" offset="0.242188"/><stop stop-opacity="1" stop-color="rgb(48.54126%, 42.955017%, 94.308472%)" offset="0.246094"/><stop stop-opacity="1" stop-color="rgb(48.808289%, 42.939758%, 94.218445%)" offset="0.25"/><stop stop-opacity="1" stop-color="rgb(49.075317%, 42.9245%, 94.126892%)" offset="0.253906"/><stop stop-opacity="1" stop-color="rgb(49.342346%, 42.909241%, 94.036865%)" offset="0.257812"/><stop stop-opacity="1" stop-color="rgb(49.607849%, 42.893982%, 93.946838%)" offset="0.261719"/><stop stop-opacity="1" stop-color="rgb(49.874878%, 42.878723%, 93.856812%)" offset="0.265625"/><stop stop-opacity="1" stop-color="rgb(50.140381%, 42.863464%, 93.765259%)" offset="0.269531"/><stop stop-opacity="1" stop-color="rgb(50.40741%, 42.848206%, 93.675232%)" offset="0.273438"/><stop stop-opacity="1" stop-color="rgb(50.672913%, 42.832947%, 93.585205%)" offset="0.277344"/><stop stop-opacity="1" stop-color="rgb(50.939941%, 42.817688%, 93.495178%)" offset="0.28125"/><stop stop-opacity="1" stop-color="rgb(51.205444%, 42.802429%, 93.405151%)" offset="0.285156"/><stop stop-opacity="1" stop-color="rgb(51.472473%, 42.78717%, 93.315125%)" offset="0.289062"/><stop stop-opacity="1" stop-color="rgb(51.737976%, 42.771912%, 93.223572%)" offset="0.292969"/><stop stop-opacity="1" stop-color="rgb(52.005005%, 42.756653%, 93.133545%)" offset="0.296875"/><stop stop-opacity="1" stop-color="rgb(52.272034%, 42.741394%, 93.043518%)" offset="0.300781"/><stop stop-opacity="1" stop-color="rgb(52.539062%, 42.726135%, 92.953491%)" offset="0.304688"/><stop stop-opacity="1" stop-color="rgb(52.804565%, 42.710876%, 92.861938%)" offset="0.308594"/><stop stop-opacity="1" stop-color="rgb(53.071594%, 42.695618%, 92.771912%)" offset="0.3125"/><stop stop-opacity="1" stop-color="rgb(53.337097%, 42.680359%, 92.681885%)" offset="0.316406"/><stop stop-opacity="1" stop-color="rgb(53.604126%, 42.6651%, 92.591858%)" offset="0.320312"/><stop stop-opacity="1" stop-color="rgb(53.869629%, 42.648315%, 92.501831%)" offset="0.324219"/><stop stop-opacity="1" stop-color="rgb(54.136658%, 42.633057%, 92.411804%)" offset="0.328125"/><stop stop-opacity="1" stop-color="rgb(54.402161%, 42.617798%, 92.320251%)" offset="0.332031"/><stop stop-opacity="1" stop-color="rgb(54.669189%, 42.602539%, 92.230225%)" offset="0.335938"/><stop stop-opacity="1" stop-color="rgb(54.934692%, 42.58728%, 92.140198%)" offset="0.339844"/><stop stop-opacity="1" stop-color="rgb(55.201721%, 42.572021%, 92.050171%)" offset="0.34375"/><stop stop-opacity="1" stop-color="rgb(55.46875%, 42.556763%, 91.958618%)" offset="0.347656"/><stop stop-opacity="1" stop-color="rgb(55.735779%, 42.541504%, 91.868591%)" offset="0.351562"/><stop stop-opacity="1" stop-color="rgb(56.001282%, 42.526245%, 91.778564%)" offset="0.355469"/><stop stop-opacity="1" stop-color="rgb(56.268311%, 42.510986%, 91.688538%)" offset="0.359375"/><stop stop-opacity="1" stop-color="rgb(56.533813%, 42.495728%, 91.596985%)" offset="0.363281"/><stop stop-opacity="1" stop-color="rgb(56.800842%, 42.480469%, 91.506958%)" offset="0.367188"/><stop stop-opacity="1" stop-color="rgb(57.066345%, 42.46521%, 91.416931%)" offset="0.371094"/><stop stop-opacity="1" stop-color="rgb(57.333374%, 42.449951%, 91.326904%)" offset="0.375"/><stop stop-opacity="1" stop-color="rgb(57.598877%, 42.434692%, 91.236877%)" offset="0.378906"/><stop stop-opacity="1" stop-color="rgb(57.865906%, 42.419434%, 91.146851%)" offset="0.382812"/><stop stop-opacity="1" stop-color="rgb(58.132935%, 42.404175%, 91.055298%)" offset="0.386719"/><stop stop-opacity="1" stop-color="rgb(58.399963%, 42.388916%, 90.965271%)" offset="0.390625"/><stop stop-opacity="1" stop-color="rgb(58.665466%, 42.373657%, 90.875244%)" offset="0.394531"/><stop stop-opacity="1" stop-color="rgb(58.932495%, 42.358398%, 90.785217%)" offset="0.398438"/><stop stop-opacity="1" stop-color="rgb(59.197998%, 42.34314%, 90.693665%)" offset="0.402344"/><stop stop-opacity="1" stop-color="rgb(59.465027%, 42.327881%, 90.603638%)" offset="0.40625"/><stop stop-opacity="1" stop-color="rgb(59.73053%, 42.312622%, 90.513611%)" offset="0.410156"/><stop stop-opacity="1" stop-color="rgb(59.997559%, 42.297363%, 90.423584%)" offset="0.414062"/><stop stop-opacity="1" stop-color="rgb(60.263062%, 42.282104%, 90.333557%)" offset="0.417969"/><stop stop-opacity="1" stop-color="rgb(60.53009%, 42.266846%, 90.24353%)" offset="0.421875"/><stop stop-opacity="1" stop-color="rgb(60.795593%, 42.251587%, 90.151978%)" offset="0.425781"/><stop stop-opacity="1" stop-color="rgb(61.062622%, 42.236328%, 90.061951%)" offset="0.429688"/><stop stop-opacity="1" stop-color="rgb(61.329651%, 42.221069%, 89.971924%)" offset="0.433594"/><stop stop-opacity="1" stop-color="rgb(61.59668%, 42.205811%, 89.881897%)" offset="0.4375"/><stop stop-opacity="1" stop-color="rgb(61.862183%, 42.190552%, 89.790344%)" offset="0.441406"/><stop stop-opacity="1" stop-color="rgb(62.129211%, 42.175293%, 89.700317%)" offset="0.445312"/><stop stop-opacity="1" stop-color="rgb(62.394714%, 42.160034%, 89.610291%)" offset="0.449219"/><stop stop-opacity="1" stop-color="rgb(62.661743%, 42.144775%, 89.520264%)" offset="0.453125"/><stop stop-opacity="1" stop-color="rgb(62.927246%, 42.127991%, 89.430237%)" offset="0.457031"/><stop stop-opacity="1" stop-color="rgb(63.194275%, 42.112732%, 89.34021%)" offset="0.460937"/><stop stop-opacity="1" stop-color="rgb(63.459778%, 42.097473%, 89.248657%)" offset="0.464844"/><stop stop-opacity="1" stop-color="rgb(63.726807%, 42.082214%, 89.15863%)" offset="0.46875"/><stop stop-opacity="1" stop-color="rgb(63.99231%, 42.066956%, 89.068604%)" offset="0.472656"/><stop stop-opacity="1" stop-color="rgb(64.259338%, 42.051697%, 88.978577%)" offset="0.476562"/><stop stop-opacity="1" stop-color="rgb(64.526367%, 42.036438%, 88.887024%)" offset="0.480469"/><stop stop-opacity="1" stop-color="rgb(64.793396%, 42.021179%, 88.796997%)" offset="0.484375"/><stop stop-opacity="1" stop-color="rgb(65.058899%, 42.00592%, 88.70697%)" offset="0.488281"/><stop stop-opacity="1" stop-color="rgb(65.325928%, 41.990662%, 88.616943%)" offset="0.492188"/><stop stop-opacity="1" stop-color="rgb(65.591431%, 41.975403%, 88.526917%)" offset="0.496094"/><stop stop-opacity="1" stop-color="rgb(65.858459%, 41.960144%, 88.43689%)" offset="0.5"/><stop stop-opacity="1" stop-color="rgb(66.123962%, 41.944885%, 88.345337%)" offset="0.503906"/><stop stop-opacity="1" stop-color="rgb(66.390991%, 41.929626%, 88.25531%)" offset="0.507812"/><stop stop-opacity="1" stop-color="rgb(66.656494%, 41.914368%, 88.165283%)" offset="0.511719"/><stop stop-opacity="1" stop-color="rgb(66.923523%, 41.899109%, 88.075256%)" offset="0.515625"/><stop stop-opacity="1" stop-color="rgb(67.190552%, 41.88385%, 87.983704%)" offset="0.519531"/><stop stop-opacity="1" stop-color="rgb(67.457581%, 41.868591%, 87.893677%)" offset="0.523438"/><stop stop-opacity="1" stop-color="rgb(67.723083%, 41.853333%, 87.80365%)" offset="0.527344"/><stop stop-opacity="1" stop-color="rgb(67.990112%, 41.838074%, 87.713623%)" offset="0.53125"/><stop stop-opacity="1" stop-color="rgb(68.255615%, 41.822815%, 87.623596%)" offset="0.535156"/><stop stop-opacity="1" stop-color="rgb(68.522644%, 41.807556%, 87.533569%)" offset="0.539062"/><stop stop-opacity="1" stop-color="rgb(68.788147%, 41.792297%, 87.442017%)" offset="0.542969"/><stop stop-opacity="1" stop-color="rgb(69.055176%, 41.777039%, 87.35199%)" offset="0.546875"/><stop stop-opacity="1" stop-color="rgb(69.320679%, 41.76178%, 87.261963%)" offset="0.550781"/><stop stop-opacity="1" stop-color="rgb(69.587708%, 41.746521%, 87.171936%)" offset="0.554688"/><stop stop-opacity="1" stop-color="rgb(69.85321%, 41.731262%, 87.080383%)" offset="0.558594"/><stop stop-opacity="1" stop-color="rgb(70.120239%, 41.716003%, 86.990356%)" offset="0.5625"/><stop stop-opacity="1" stop-color="rgb(70.387268%, 41.700745%, 86.90033%)" offset="0.566406"/><stop stop-opacity="1" stop-color="rgb(70.654297%, 41.685486%, 86.810303%)" offset="0.570313"/><stop stop-opacity="1" stop-color="rgb(70.9198%, 41.670227%, 86.720276%)" offset="0.574219"/><stop stop-opacity="1" stop-color="rgb(71.186829%, 41.654968%, 86.630249%)" offset="0.578125"/><stop stop-opacity="1" stop-color="rgb(71.452332%, 41.639709%, 86.538696%)" offset="0.582031"/><stop stop-opacity="1" stop-color="rgb(71.71936%, 41.624451%, 86.448669%)" offset="0.585937"/><stop stop-opacity="1" stop-color="rgb(71.984863%, 41.607666%, 86.358643%)" offset="0.589844"/><stop stop-opacity="1" stop-color="rgb(72.251892%, 41.592407%, 86.268616%)" offset="0.59375"/><stop stop-opacity="1" stop-color="rgb(72.517395%, 41.577148%, 86.177063%)" offset="0.597656"/><stop stop-opacity="1" stop-color="rgb(72.784424%, 41.56189%, 86.087036%)" offset="0.601562"/><stop stop-opacity="1" stop-color="rgb(73.049927%, 41.546631%, 85.997009%)" offset="0.605469"/><stop stop-opacity="1" stop-color="rgb(73.316956%, 41.531372%, 85.906982%)" offset="0.609375"/><stop stop-opacity="1" stop-color="rgb(73.583984%, 41.516113%, 85.816956%)" offset="0.613281"/><stop stop-opacity="1" stop-color="rgb(73.851013%, 41.500854%, 85.726929%)" offset="0.617188"/><stop stop-opacity="1" stop-color="rgb(74.116516%, 41.485596%, 85.635376%)" offset="0.621094"/><stop stop-opacity="1" stop-color="rgb(74.383545%, 41.470337%, 85.545349%)" offset="0.625"/><stop stop-opacity="1" stop-color="rgb(74.649048%, 41.455078%, 85.455322%)" offset="0.628906"/><stop stop-opacity="1" stop-color="rgb(74.916077%, 41.439819%, 85.365295%)" offset="0.632812"/><stop stop-opacity="1" stop-color="rgb(75.18158%, 41.424561%, 85.273743%)" offset="0.636719"/><stop stop-opacity="1" stop-color="rgb(75.448608%, 41.409302%, 85.183716%)" offset="0.640625"/><stop stop-opacity="1" stop-color="rgb(75.714111%, 41.394043%, 85.093689%)" offset="0.644531"/><stop stop-opacity="1" stop-color="rgb(75.98114%, 41.378784%, 85.003662%)" offset="0.648438"/><stop stop-opacity="1" stop-color="rgb(76.248169%, 41.363525%, 84.913635%)" offset="0.652344"/><stop stop-opacity="1" stop-color="rgb(76.515198%, 41.348267%, 84.823608%)" offset="0.65625"/><stop stop-opacity="1" stop-color="rgb(76.780701%, 41.333008%, 84.732056%)" offset="0.660156"/><stop stop-opacity="1" stop-color="rgb(77.047729%, 41.317749%, 84.642029%)" offset="0.664063"/><stop stop-opacity="1" stop-color="rgb(77.313232%, 41.30249%, 84.552002%)" offset="0.667969"/><stop stop-opacity="1" stop-color="rgb(77.580261%, 41.287231%, 84.461975%)" offset="0.671875"/><stop stop-opacity="1" stop-color="rgb(77.845764%, 41.271973%, 84.370422%)" offset="0.675781"/><stop stop-opacity="1" stop-color="rgb(78.112793%, 41.256714%, 84.280396%)" offset="0.679688"/><stop stop-opacity="1" stop-color="rgb(78.378296%, 41.241455%, 84.190369%)" offset="0.683594"/><stop stop-opacity="1" stop-color="rgb(78.645325%, 41.226196%, 84.100342%)" offset="0.6875"/><stop stop-opacity="1" stop-color="rgb(78.910828%, 41.210938%, 84.008789%)" offset="0.691406"/><stop stop-opacity="1" stop-color="rgb(79.177856%, 41.195679%, 83.918762%)" offset="0.695312"/><stop stop-opacity="1" stop-color="rgb(79.444885%, 41.18042%, 83.828735%)" offset="0.699219"/><stop stop-opacity="1" stop-color="rgb(79.711914%, 41.165161%, 83.738708%)" offset="0.703125"/><stop stop-opacity="1" stop-color="rgb(79.977417%, 41.149902%, 83.648682%)" offset="0.707031"/><stop stop-opacity="1" stop-color="rgb(80.244446%, 41.134644%, 83.558655%)" offset="0.710937"/><stop stop-opacity="1" stop-color="rgb(80.509949%, 41.119385%, 83.467102%)" offset="0.714844"/><stop stop-opacity="1" stop-color="rgb(80.776978%, 41.104126%, 83.377075%)" offset="0.71875"/><stop stop-opacity="1" stop-color="rgb(81.04248%, 41.087341%, 83.287048%)" offset="0.722656"/><stop stop-opacity="1" stop-color="rgb(81.309509%, 41.072083%, 83.197021%)" offset="0.726562"/><stop stop-opacity="1" stop-color="rgb(81.575012%, 41.056824%, 83.105469%)" offset="0.730469"/><stop stop-opacity="1" stop-color="rgb(81.842041%, 41.041565%, 83.015442%)" offset="0.734375"/><stop stop-opacity="1" stop-color="rgb(82.107544%, 41.026306%, 82.925415%)" offset="0.738281"/><stop stop-opacity="1" stop-color="rgb(82.374573%, 41.011047%, 82.835388%)" offset="0.742188"/><stop stop-opacity="1" stop-color="rgb(82.641602%, 40.995789%, 82.745361%)" offset="0.746094"/><stop stop-opacity="1" stop-color="rgb(82.90863%, 40.98053%, 82.655334%)" offset="0.75"/><stop stop-opacity="1" stop-color="rgb(83.174133%, 40.965271%, 82.563782%)" offset="0.753906"/><stop stop-opacity="1" stop-color="rgb(83.441162%, 40.950012%, 82.473755%)" offset="0.757812"/><stop stop-opacity="1" stop-color="rgb(83.706665%, 40.934753%, 82.383728%)" offset="0.761719"/><stop stop-opacity="1" stop-color="rgb(83.973694%, 40.919495%, 82.293701%)" offset="0.765625"/><stop stop-opacity="1" stop-color="rgb(84.239197%, 40.904236%, 82.202148%)" offset="0.769531"/><stop stop-opacity="1" stop-color="rgb(84.506226%, 40.888977%, 82.112122%)" offset="0.773438"/><stop stop-opacity="1" stop-color="rgb(84.771729%, 40.873718%, 82.022095%)" offset="0.777344"/><stop stop-opacity="1" stop-color="rgb(85.038757%, 40.858459%, 81.932068%)" offset="0.78125"/><stop stop-opacity="1" stop-color="rgb(85.305786%, 40.843201%, 81.842041%)" offset="0.785156"/><stop stop-opacity="1" stop-color="rgb(85.572815%, 40.827942%, 81.752014%)" offset="0.789063"/><stop stop-opacity="1" stop-color="rgb(85.838318%, 40.812683%, 81.660461%)" offset="0.792969"/><stop stop-opacity="1" stop-color="rgb(86.105347%, 40.797424%, 81.570435%)" offset="0.796875"/><stop stop-opacity="1" stop-color="rgb(86.37085%, 40.782166%, 81.480408%)" offset="0.800781"/><stop stop-opacity="1" stop-color="rgb(86.637878%, 40.766907%, 81.390381%)" offset="0.804687"/><stop stop-opacity="1" stop-color="rgb(86.903381%, 40.751648%, 81.298828%)" offset="0.808594"/><stop stop-opacity="1" stop-color="rgb(87.17041%, 40.736389%, 81.208801%)" offset="0.8125"/><stop stop-opacity="1" stop-color="rgb(87.435913%, 40.72113%, 81.118774%)" offset="0.816406"/><stop stop-opacity="1" stop-color="rgb(87.702942%, 40.705872%, 81.028748%)" offset="0.820312"/><stop stop-opacity="1" stop-color="rgb(87.968445%, 40.690613%, 80.938721%)" offset="0.824219"/><stop stop-opacity="1" stop-color="rgb(88.235474%, 40.675354%, 80.848694%)" offset="0.828125"/><stop stop-opacity="1" stop-color="rgb(88.502502%, 40.660095%, 80.757141%)" offset="0.832031"/><stop stop-opacity="1" stop-color="rgb(88.769531%, 40.644836%, 80.667114%)" offset="0.835938"/><stop stop-opacity="1" stop-color="rgb(89.035034%, 40.629578%, 80.577087%)" offset="0.839844"/><stop stop-opacity="1" stop-color="rgb(89.302063%, 40.614319%, 80.487061%)" offset="0.84375"/><stop stop-opacity="1" stop-color="rgb(89.567566%, 40.59906%, 80.395508%)" offset="0.847656"/><stop stop-opacity="1" stop-color="rgb(89.834595%, 40.583801%, 80.305481%)" offset="0.851562"/><stop stop-opacity="1" stop-color="rgb(90.100098%, 40.568542%, 80.215454%)" offset="0.855469"/><stop stop-opacity="1" stop-color="rgb(90.367126%, 40.553284%, 80.125427%)" offset="0.859375"/><stop stop-opacity="1" stop-color="rgb(90.632629%, 40.536499%, 80.0354%)" offset="0.863281"/><stop stop-opacity="1" stop-color="rgb(90.899658%, 40.52124%, 79.945374%)" offset="0.867188"/><stop stop-opacity="1" stop-color="rgb(91.165161%, 40.505981%, 79.853821%)" offset="0.871094"/><stop stop-opacity="1" stop-color="rgb(91.43219%, 40.490723%, 79.763794%)" offset="0.875"/><stop stop-opacity="1" stop-color="rgb(91.699219%, 40.475464%, 79.673767%)" offset="0.878906"/><stop stop-opacity="1" stop-color="rgb(91.966248%, 40.460205%, 79.58374%)" offset="0.882813"/><stop stop-opacity="1" stop-color="rgb(92.23175%, 40.444946%, 79.492188%)" offset="0.886719"/><stop stop-opacity="1" stop-color="rgb(92.498779%, 40.429688%, 79.402161%)" offset="0.890625"/><stop stop-opacity="1" stop-color="rgb(92.764282%, 40.414429%, 79.312134%)" offset="0.894531"/><stop stop-opacity="1" stop-color="rgb(93.031311%, 40.39917%, 79.222107%)" offset="0.898437"/><stop stop-opacity="1" stop-color="rgb(93.296814%, 40.383911%, 79.13208%)" offset="0.902344"/><stop stop-opacity="1" stop-color="rgb(93.563843%, 40.368652%, 79.042053%)" offset="0.90625"/><stop stop-opacity="1" stop-color="rgb(93.829346%, 40.353394%, 78.9505%)" offset="0.910156"/><stop stop-opacity="1" stop-color="rgb(94.096375%, 40.338135%, 78.860474%)" offset="0.914062"/><stop stop-opacity="1" stop-color="rgb(94.363403%, 40.322876%, 78.770447%)" offset="0.917969"/><stop stop-opacity="1" stop-color="rgb(94.630432%, 40.307617%, 78.68042%)" offset="0.921875"/><stop stop-opacity="1" stop-color="rgb(94.895935%, 40.292358%, 78.588867%)" offset="0.925781"/><stop stop-opacity="1" stop-color="rgb(95.162964%, 40.2771%, 78.49884%)" offset="0.929688"/><stop stop-opacity="1" stop-color="rgb(95.428467%, 40.261841%, 78.408813%)" offset="0.933594"/><stop stop-opacity="1" stop-color="rgb(95.695496%, 40.246582%, 78.318787%)" offset="0.9375"/><stop stop-opacity="1" stop-color="rgb(95.960999%, 40.231323%, 78.22876%)" offset="0.941406"/><stop stop-opacity="1" stop-color="rgb(96.228027%, 40.216064%, 78.138733%)" offset="0.945312"/><stop stop-opacity="1" stop-color="rgb(96.49353%, 40.200806%, 78.04718%)" offset="0.949219"/><stop stop-opacity="1" stop-color="rgb(96.760559%, 40.185547%, 77.957153%)" offset="0.953125"/><stop stop-opacity="1" stop-color="rgb(97.026062%, 40.170288%, 77.867126%)" offset="0.957031"/><stop stop-opacity="1" stop-color="rgb(97.293091%, 40.155029%, 77.7771%)" offset="0.960938"/><stop stop-opacity="1" stop-color="rgb(97.56012%, 40.139771%, 77.685547%)" offset="0.964844"/><stop stop-opacity="1" stop-color="rgb(97.827148%, 40.124512%, 77.59552%)" offset="0.96875"/><stop stop-opacity="1" stop-color="rgb(98.092651%, 40.109253%, 77.505493%)" offset="0.972656"/><stop stop-opacity="1" stop-color="rgb(98.35968%, 40.093994%, 77.415466%)" offset="0.976563"/><stop stop-opacity="1" stop-color="rgb(98.625183%, 40.078735%, 77.325439%)" offset="0.980469"/><stop stop-opacity="1" stop-color="rgb(98.892212%, 40.063477%, 77.235413%)" offset="0.984375"/><stop stop-opacity="1" stop-color="rgb(99.157715%, 40.048218%, 77.14386%)" offset="0.988281"/><stop stop-opacity="1" stop-color="rgb(99.424744%, 40.032959%, 77.053833%)" offset="0.992188"/><stop stop-opacity="1" stop-color="rgb(99.690247%, 40.016174%, 76.963806%)" offset="0.996094"/><stop stop-opacity="1" stop-color="rgb(99.957275%, 40.000916%, 76.873779%)" offset="1"/></linearGradient><clipPath id="0302122f49"><path d="M 267.953125 176.066406 L 286.460938 176.066406 L 286.460938 194.574219 L 267.953125 194.574219 Z M 267.953125 176.066406 " clip-rule="nonzero"/></clipPath><clipPath id="3b8e1ae273"><path d="M 277.207031 176.066406 C 272.09375 176.066406 267.953125 180.210938 267.953125 185.320312 C 267.953125 190.433594 272.09375 194.574219 277.207031 194.574219 C 282.316406 194.574219 286.460938 190.433594 286.460938 185.320312 C 286.460938 180.210938 282.316406 176.066406 277.207031 176.066406 Z M 277.207031 176.066406 " clip-rule="nonzero"/></clipPath><clipPath id="542d155c60"><path d="M 0.953125 0.0664062 L 19.460938 0.0664062 L 19.460938 18.574219 L 0.953125 18.574219 Z M 0.953125 0.0664062 " clip-rule="nonzero"/></clipPath><clipPath id="66eb371ec8"><path d="M 10.207031 0.0664062 C 5.09375 0.0664062 0.953125 4.210938 0.953125 9.320312 C 0.953125 14.433594 5.09375 18.574219 10.207031 18.574219 C 15.316406 18.574219 19.460938 14.433594 19.460938 9.320312 C 19.460938 4.210938 15.316406 0.0664062 10.207031 0.0664062 Z M 10.207031 0.0664062 " clip-rule="nonzero"/></clipPath><clipPath id="06c6a4605c"><rect x="0" width="20" y="0" height="19"/></clipPath></defs><rect x="-37.5" width="450" fill="#ffffff" y="-37.499999" height="449.999989" fill-opacity="1"/><rect x="-37.5" width="450" fill="#ffffff" y="-37.499999" height="449.999989" fill-opacity="1"/><g clip-path="url(#807b4e250f)"><g clip-path="url(#c6d7d5e4a2)"><g transform="matrix(1, 0, 0, 1, 88, 151)"><g clip-path="url(#895df89d27)"><g clip-path="url(#6129e452c5)"><g clip-path="url(#44f942ad2a)"><path fill="#cb6ce6" d="M 4.289062 69.574219 L 0.539062 69.574219 L 0.539062 0.417969 L 4.289062 0.417969 Z M 4.289062 69.574219 " fill-opacity="1" fill-rule="nonzero"/></g></g></g></g></g></g><g clip-path="url(#ff6c58076c)"><g clip-path="url(#0a1c4304e3)"><g clip-path="url(#3d78a85d9a)"><g transform="matrix(1, 0, 0, 1, 112, 162)"><g clip-path="url(#44fb3ee8bd)"><g clip-path="url(#b5219d80c8)"><g clip-path="url(#762723a09a)"><g clip-path="url(#16be5e3b59)"><g clip-path="url(#5545514d61)"><g clip-path="url(#5601810f75)"><path fill="url(#1f2400220b)" d="M 120.894531 60.511719 L 47.1875 -35.023438 L -45.359375 36.378906 L 28.34375 131.914062 Z M 120.894531 60.511719 " fill-rule="nonzero"/></g></g></g></g></g></g></g></g></g></g><g clip-path="url(#c374022650)"><g clip-path="url(#2571518923)"><g transform="matrix(1, 0, 0, 1, 88, 114)"><g clip-path="url(#3450e3d1ac)"><g clip-path="url(#68b67ad2b7)"><g clip-path="url(#df64438edc)"><path fill="#ffffff" d="M 47.320312 0.628906 L 47.320312 58.378906 L 0.535156 58.378906 L 0.535156 0.628906 Z M 47.320312 0.628906 " fill-opacity="1" fill-rule="nonzero"/></g></g></g></g></g></g><g clip-path="url(#a66b5f98d7)"><g clip-path="url(#10c91c766e)"><path stroke-linecap="butt" transform="matrix(0, 0.75, -0.75, 0, 135.316784, 114.63052)" fill="none" stroke-linejoin="miter" d="M 77.044728 31.182797 C 77.044728 39.453631 73.763478 47.385923 67.914519 53.234882 C 62.06556 59.08384 54.133268 62.370299 45.862434 62.370299 L 31.18535 62.370299 C 22.914516 62.370299 14.982224 59.08384 9.133265 53.234882 C 3.284306 47.385923 -0.0021523 39.453631 -0.0021523 31.182797 C -0.0021523 22.911963 3.284306 14.979671 9.133265 9.13592 C 14.982224 3.286962 22.914516 0.000503152 31.18535 0.000503152 L 45.862434 0.000503152 C 54.133268 0.000503152 62.06556 3.286962 67.914519 9.13592 C 73.763478 14.979671 77.044728 22.911963 77.044728 31.182797 Z M 77.044728 31.182797 " stroke="url(#7b42ba2e5c)" stroke-width="14" stroke-miterlimit="4"/></g></g><g clip-path="url(#0302122f49)"><g clip-path="url(#3b8e1ae273)"><g transform="matrix(1, 0, 0, 1, 267, 176)"><g clip-path="url(#06c6a4605c)"><g clip-path="url(#542d155c60)"><g clip-path="url(#66eb371ec8)"><path fill="#cb6ce6" d="M 0.953125 0.0664062 L 19.460938 0.0664062 L 19.460938 18.574219 L 0.953125 18.574219 Z M 0.953125 0.0664062 " fill-opacity="1" fill-rule="nonzero"/></g></g></g></g></g></g><g fill="#000000" fill-opacity="1"><g transform="translate(135.325412, 191.44282)"><g><path d="M 17.21875 0.875 C 15.113281 0.875 13.160156 0.457031 11.359375 -0.375 C 9.566406 -1.207031 8 -2.363281 6.65625 -3.84375 C 5.3125 -5.332031 4.257812 -7.0625 3.5 -9.03125 C 2.75 -11 2.375 -13.109375 2.375 -15.359375 C 2.375 -17.597656 2.75 -19.695312 3.5 -21.65625 C 4.257812 -23.613281 5.3125 -25.332031 6.65625 -26.8125 C 8 -28.300781 9.566406 -29.460938 11.359375 -30.296875 C 13.160156 -31.128906 15.101562 -31.546875 17.1875 -31.546875 C 19.03125 -31.546875 20.742188 -31.242188 22.328125 -30.640625 C 23.921875 -30.046875 25.320312 -29.191406 26.53125 -28.078125 C 27.75 -26.960938 28.703125 -25.640625 29.390625 -24.109375 L 29.390625 -30.703125 L 34.34375 -30.703125 L 34.34375 0 L 29.390625 0 L 29.390625 -6.53125 C 28.703125 -5.03125 27.75 -3.722656 26.53125 -2.609375 C 25.320312 -1.492188 23.921875 -0.632812 22.328125 -0.03125 C 20.742188 0.570312 19.039062 0.875 17.21875 0.875 Z M 18.359375 -3.96875 C 19.867188 -3.96875 21.28125 -4.253906 22.59375 -4.828125 C 23.90625 -5.398438 25.050781 -6.203125 26.03125 -7.234375 C 27.019531 -8.273438 27.796875 -9.488281 28.359375 -10.875 C 28.921875 -12.257812 29.203125 -13.753906 29.203125 -15.359375 C 29.203125 -16.941406 28.921875 -18.421875 28.359375 -19.796875 C 27.796875 -21.171875 27.015625 -22.375 26.015625 -23.40625 C 25.023438 -24.4375 23.878906 -25.242188 22.578125 -25.828125 C 21.273438 -26.410156 19.878906 -26.703125 18.390625 -26.703125 C 16.890625 -26.703125 15.484375 -26.425781 14.171875 -25.875 C 12.867188 -25.320312 11.71875 -24.535156 10.71875 -23.515625 C 9.71875 -22.492188 8.9375 -21.296875 8.375 -19.921875 C 7.8125 -18.546875 7.53125 -17.023438 7.53125 -15.359375 C 7.53125 -13.648438 7.816406 -12.097656 8.390625 -10.703125 C 8.960938 -9.304688 9.742188 -8.101562 10.734375 -7.09375 C 11.722656 -6.09375 12.875 -5.320312 14.1875 -4.78125 C 15.507812 -4.238281 16.898438 -3.96875 18.359375 -3.96875 Z M 18.359375 -3.96875 "/></g></g></g><g fill="#000000" fill-opacity="1"><g transform="translate(171.05748, 191.44282)"><g><path d="M 17.765625 0 L 12.859375 0 L 0.390625 -30.703125 L 5.90625 -30.703125 L 14.578125 -9.03125 L 15.328125 -6.296875 L 16.046875 -9.03125 L 24.71875 -30.703125 L 30.25 -30.703125 Z M 17.765625 0 "/></g></g></g><g fill="#000000" fill-opacity="1"><g transform="translate(198.121336, 191.44282)"><g><path d="M 7.53125 -36.703125 C 6.46875 -36.703125 5.617188 -37.019531 4.984375 -37.65625 C 4.347656 -38.300781 4.03125 -39.085938 4.03125 -40.015625 C 4.03125 -40.910156 4.347656 -41.679688 4.984375 -42.328125 C 5.617188 -42.972656 6.476562 -43.296875 7.5625 -43.296875 C 8.664062 -43.296875 9.53125 -42.972656 10.15625 -42.328125 C 10.789062 -41.679688 11.109375 -40.910156 11.109375 -40.015625 C 11.109375 -39.085938 10.789062 -38.300781 10.15625 -37.65625 C 9.53125 -37.019531 8.65625 -36.703125 7.53125 -36.703125 Z M 10.140625 0 L 4.96875 0 L 4.96875 -30.703125 L 10.140625 -30.703125 Z M 10.140625 0 "/></g></g></g><g fill="#000000" fill-opacity="1"><g transform="translate(209.654645, 191.44282)"><g><path d="M 10.171875 0 L 4.96875 0 L 4.96875 -30.703125 L 9.96875 -30.703125 L 9.96875 -23.84375 C 10.726562 -25.96875 11.914062 -27.640625 13.53125 -28.859375 C 15.144531 -30.085938 17.066406 -30.703125 19.296875 -30.703125 L 22.28125 -30.703125 L 22.28125 -26.15625 L 19.5625 -26.15625 C 17.78125 -26.15625 16.175781 -25.691406 14.75 -24.765625 C 13.320312 -23.847656 12.203125 -22.515625 11.390625 -20.765625 C 10.578125 -19.023438 10.171875 -16.921875 10.171875 -14.453125 Z M 10.171875 0 "/></g></g></g><g fill="#000000" fill-opacity="1"><g transform="translate(229.434795, 191.44282)"><g><path d="M 18.328125 0.875 C 16.066406 0.875 13.96875 0.457031 12.03125 -0.375 C 10.09375 -1.207031 8.398438 -2.363281 6.953125 -3.84375 C 5.503906 -5.332031 4.378906 -7.0625 3.578125 -9.03125 C 2.773438 -11 2.375 -13.109375 2.375 -15.359375 C 2.375 -17.597656 2.773438 -19.695312 3.578125 -21.65625 C 4.378906 -23.613281 5.5 -25.332031 6.9375 -26.8125 C 8.375 -28.300781 10.0625 -29.46875 12 -30.3125 C 13.9375 -31.15625 16.046875 -31.578125 18.328125 -31.578125 C 20.617188 -31.578125 22.738281 -31.160156 24.6875 -30.328125 C 26.632812 -29.492188 28.328125 -28.332031 29.765625 -26.84375 C 31.210938 -25.363281 32.335938 -23.640625 33.140625 -21.671875 C 33.941406 -19.703125 34.34375 -17.597656 34.34375 -15.359375 C 34.34375 -13.109375 33.941406 -11 33.140625 -9.03125 C 32.335938 -7.0625 31.210938 -5.332031 29.765625 -3.84375 C 28.328125 -2.363281 26.632812 -1.207031 24.6875 -0.375 C 22.738281 0.457031 20.617188 0.875 18.328125 0.875 Z M 18.390625 -4 C 19.921875 -4 21.335938 -4.28125 22.640625 -4.84375 C 23.941406 -5.40625 25.082031 -6.195312 26.0625 -7.21875 C 27.050781 -8.25 27.816406 -9.457031 28.359375 -10.84375 C 28.898438 -12.226562 29.171875 -13.734375 29.171875 -15.359375 C 29.171875 -16.984375 28.898438 -18.484375 28.359375 -19.859375 C 27.816406 -21.234375 27.050781 -22.429688 26.0625 -23.453125 C 25.082031 -24.472656 23.941406 -25.269531 22.640625 -25.84375 C 21.335938 -26.414062 19.921875 -26.703125 18.390625 -26.703125 C 16.867188 -26.703125 15.445312 -26.414062 14.125 -25.84375 C 12.8125 -25.269531 11.664062 -24.472656 10.6875 -23.453125 C 9.707031 -22.429688 8.941406 -21.234375 8.390625 -19.859375 C 7.835938 -18.484375 7.5625 -16.984375 7.5625 -15.359375 C 7.5625 -13.734375 7.835938 -12.226562 8.390625 -10.84375 C 8.941406 -9.457031 9.707031 -8.25 10.6875 -7.21875 C 11.664062 -6.195312 12.8125 -5.40625 14.125 -4.84375 C 15.445312 -4.28125 16.867188 -4 18.390625 -4 Z M 18.390625 -4 "/></g></g></g></svg>