<svg width="20" height="20" viewBox="0 0 20 20" fill="none" xmlns="http://www.w3.org/2000/svg">
<g clip-path="url(#clip0_104_467)">
<path d="M11.0278 0.11084C12.1324 0.11084 13.0278 1.00628 13.0278 2.11084V2.68896L13.437 2.27979C14.218 1.49898 15.4841 1.49899 16.2651 2.27979L17.7202 3.73486C18.5008 4.51589 18.5009 5.78207 17.7202 6.56299L17.311 6.97119H17.8892C18.9937 6.9712 19.889 7.86672 19.8892 8.97119V11.0278C19.8892 12.1324 18.9937 13.0278 17.8892 13.0278H17.311L17.7192 13.437C18.5003 14.2181 18.5003 15.4841 17.7192 16.2651L16.2651 17.7202C15.4842 18.5009 14.218 18.5008 13.437 17.7202L13.0278 17.311V17.8892C13.0278 18.9937 12.1324 19.8892 11.0278 19.8892H8.97119C7.86662 19.8892 6.97119 18.9937 6.97119 17.8892V17.311L6.56299 17.7202C5.78208 18.501 4.51591 18.5008 3.73486 17.7202L2.27979 16.2651C1.49896 15.4841 1.4989 14.218 2.27979 13.437L2.68896 13.0278H2.11084C1.07536 13.0278 0.224078 12.2413 0.121582 11.2329L0.11084 11.0278V8.97119C0.110953 7.86672 1.00634 6.97119 2.11084 6.97119H2.68799L2.27979 6.56299C1.4988 5.78201 1.49893 4.51593 2.27979 3.73486L3.73389 2.27979C4.51494 1.49874 5.78194 1.49874 6.56299 2.27979L6.97119 2.68896V2.11084C6.9712 1.00627 7.86663 0.11084 8.97119 0.11084H11.0278ZM8.97119 2.68896C8.97082 4.47035 6.81699 5.36247 5.55713 4.10303L5.14795 3.69385L3.69385 5.14893L4.10205 5.55713C5.36198 6.81706 4.4698 8.97119 2.68799 8.97119H2.11084V11.0278H2.68896C4.47052 11.0281 5.36287 13.183 4.10303 14.4429L3.69385 14.8511L5.14893 16.3052L5.55713 15.897C6.81699 14.6375 8.97082 15.5296 8.97119 17.311V17.8892H11.0278V17.311C11.0279 15.5294 13.182 14.6373 14.4419 15.897L14.8511 16.3052L16.3052 14.8511L15.897 14.4429C14.637 13.1829 15.5292 11.0278 17.311 11.0278H17.8892V8.97119H17.311C15.5294 8.97103 14.6371 6.81701 15.897 5.55713L16.3052 5.14893L14.8511 3.69385L14.4419 4.10303C13.182 5.3627 11.0279 4.47063 11.0278 2.68896V2.11084H8.97119V2.68896ZM9.99951 6.25732C12.0662 6.25732 13.7414 7.93286 13.7417 9.99951C13.7417 12.0664 12.0664 13.7417 9.99951 13.7417C7.93286 13.7414 6.25732 12.0662 6.25732 9.99951C6.25758 7.93301 7.93301 6.25758 9.99951 6.25732ZM9.99951 8.25732C9.03758 8.25758 8.25758 9.03758 8.25732 9.99951C8.25732 10.9617 9.03743 11.7414 9.99951 11.7417C10.9618 11.7417 11.7417 10.9618 11.7417 9.99951C11.7414 9.03743 10.9617 8.25732 9.99951 8.25732Z" fill="#9F43CC"/>
</g>
<defs>
<clipPath id="clip0_104_467">
<rect width="20" height="20" fill="white"/>
</clipPath>
</defs>
</svg>
