<svg width="20" height="20" viewBox="0 0 20 20" fill="none" xmlns="http://www.w3.org/2000/svg">
<path fill-rule="evenodd" clip-rule="evenodd" d="M16.6836 3.19727C17.2359 3.19727 17.6836 3.64498 17.6836 4.19727V16.8027H13.8945V4.19727C13.8945 3.64498 14.3422 3.19727 14.8945 3.19727H16.6836ZM18.6836 18.8027C19.2358 18.8027 19.6834 18.3548 19.6836 17.8027V4.19727C19.6836 2.54041 18.3404 1.19727 16.6836 1.19727H14.8945C13.2377 1.19727 11.8945 2.54041 11.8945 4.19727V7.28188C11.5817 7.17127 11.245 7.11108 10.8943 7.11108H9.10522C7.44837 7.11108 6.10523 8.45423 6.10522 10.1111V11.309C5.79238 11.1984 5.45571 11.1382 5.10498 11.1382H3.31592C1.65906 11.1382 0.315918 12.4813 0.315918 14.1382V17.8022C0.315918 18.3545 0.763633 18.8022 1.31592 18.8022H7.08291L7.10522 18.8025H12.8722C12.8796 18.8027 12.8871 18.8027 12.8945 18.8027H18.6836ZM11.8943 10.1111C11.8943 9.5588 11.4466 9.11108 10.8943 9.11108H9.10522C8.55294 9.11108 8.10523 9.5588 8.10522 10.1111V16.8025H11.8943V10.1111ZM6.10498 14.1382C6.10498 13.5859 5.65726 13.1382 5.10498 13.1382H3.31592C2.76363 13.1382 2.31592 13.5859 2.31592 14.1382V16.8022H6.10498V14.1382Z" fill="#9F43CC"/>
</svg>
