<svg width="20" height="20" viewBox="0 0 20 20" fill="none" xmlns="http://www.w3.org/2000/svg">
<g clip-path="url(#clip0_104_465)">
<path fill-rule="evenodd" clip-rule="evenodd" d="M16.8988 4.88737C16.8987 4.33517 16.4512 3.88748 15.8989 3.88748L7.30179 3.88748L8.74086 2.4484C9.1313 2.05787 9.13136 1.42469 8.74086 1.03419C8.35037 0.643694 7.71718 0.64375 7.32665 1.03419L4.18058 4.18026C3.79005 4.57079 3.79005 5.20395 4.18058 5.59448L7.32665 8.74055C7.71717 9.13107 8.35034 9.13107 8.74086 8.74055C9.13119 8.35001 9.13132 7.7168 8.74086 7.32634L7.30179 5.88726L15.8989 5.88726C16.4512 5.88726 16.8988 5.43965 16.8988 4.88737ZM3.10127 15.1128C3.10138 15.665 3.54895 16.1127 4.10117 16.1127H12.6983L11.2592 17.5518C10.8688 17.9423 10.8687 18.5755 11.2592 18.966C11.6497 19.3565 12.2829 19.3564 12.6735 18.966L15.8195 15.8199C16.2101 15.4294 16.2101 14.7962 15.8195 14.4057L12.6735 11.2596C12.2829 10.8691 11.6498 10.8691 11.2592 11.2596C10.8689 11.6502 10.8688 12.2834 11.2592 12.6738L12.6983 14.1129H4.10117C3.54888 14.1129 3.10127 14.5605 3.10127 15.1128Z" fill="#9F43CC"/>
</g>
<defs>
<clipPath id="clip0_104_465">
<rect width="20" height="20" fill="white"/>
</clipPath>
</defs>
</svg>
